<?xml version="1.0" encoding="UTF-8" standalone="no"?>
<!-- Created with Inkscape (http://www.inkscape.org/) -->

<svg
   xmlns:dc="http://purl.org/dc/elements/1.1/"
   xmlns:cc="http://creativecommons.org/ns#"
   xmlns:rdf="http://www.w3.org/1999/02/22-rdf-syntax-ns#"
   xmlns:svg="http://www.w3.org/2000/svg"
   xmlns="http://www.w3.org/2000/svg"
   xmlns:sodipodi="http://sodipodi.sourceforge.net/DTD/sodipodi-0.dtd"
   xmlns:inkscape="http://www.inkscape.org/namespaces/inkscape"
   width="16"
   height="16"
   viewBox="0 0 16.00000012402995 16.00000033574468"
   id="svg2"
   version="1.1"
   inkscape:version="0.91 r13725"
   sodipodi:docname="favicon.svg"
   inkscape:export-filename="/home/zlsa/projects/native/indoc/lib/public/favicon.png"
   inkscape:export-xdpi="90"
   inkscape:export-ydpi="90">
  <defs
     id="defs4" />
  <sodipodi:namedview
     id="base"
     pagecolor="#ababab"
     bordercolor="#666666"
     borderopacity="1.0"
     inkscape:pageopacity="0"
     inkscape:pageshadow="2"
     inkscape:zoom="11.31370847809143"
     inkscape:cx="43.34820796967598"
     inkscape:cy="-4.398043887642388"
     inkscape:document-units="px"
     inkscape:current-layer="layer1"
     showgrid="false"
     units="px"
     inkscape:window-width="1600"
     inkscape:window-height="859"
     inkscape:window-x="0"
     inkscape:window-y="20"
     inkscape:window-maximized="0"
     inkscape:snap-smooth-nodes="true"
     inkscape:object-nodes="true">
    <inkscape:grid
       type="xygrid"
       id="grid3336" />
  </sodipodi:namedview>
  <metadata
     id="metadata7">
    <rdf:RDF>
      <cc:Work
         rdf:about="">
        <dc:format>image/svg+xml</dc:format>
        <dc:type
           rdf:resource="http://purl.org/dc/dcmitype/StillImage" />
        <dc:title></dc:title>
      </cc:Work>
    </rdf:RDF>
  </metadata>
  <g
     inkscape:label="Layer 1"
     inkscape:groupmode="layer"
     id="layer1"
     transform="translate(0,-1036.362160509965)">
    <circle
       r="8.000021934509277"
       cy="1044.362182617188"
       cx="8"
       id="circle4183"
       style="opacity:1;fill:#000000;fill-opacity:0.250980407;fill-rule:nonzero;stroke:none;stroke-width:2;stroke-linecap:round;stroke-linejoin:round;stroke-miterlimit:4;stroke-dasharray:none;stroke-dashoffset:0;stroke-opacity:0.5019607843" />
    <circle
       style="opacity:1;fill:#ffffff;fill-opacity:1;fill-rule:nonzero;stroke:none;stroke-width:2;stroke-linecap:round;stroke-linejoin:round;stroke-miterlimit:4;stroke-dasharray:none;stroke-dashoffset:0;stroke-opacity:0.5019607843"
       id="path4170"
       cx="8"
       cy="1044.362182617188"
       r="7" />
    <path
       style="opacity:1;fill:#9487be;fill-opacity:1;fill-rule:nonzero;stroke:none;stroke-width:2;stroke-linecap:round;stroke-linejoin:round;stroke-miterlimit:4;stroke-dasharray:none;stroke-dashoffset:0;stroke-opacity:0.5019607843"
       d="M 8 3 A 5.000021934509278 5.000021934509278 0 0 0 3 8 A 5.000021934509278 5.000021934509278 0 0 0 8 13 A 5.000021934509278 5.000021934509278 0 0 0 13 8 A 5.000021934509278 5.000021934509278 0 0 0 8 3 z M 8 5 A 3.000022172927856 3.000022172927856 0 0 1 11 8 A 3.000022172927856 3.000022172927856 0 0 1 8 11 A 3.000022172927856 3.000022172927856 0 0 1 5 8 A 3.000022172927856 3.000022172927856 0 0 1 8 5 z "
       transform="translate(0,1036.362160509965)"
       id="circle4172" />
    <path
       style="opacity:1;fill:#6857a0;fill-opacity:1;fill-rule:nonzero;stroke:none;stroke-width:2;stroke-linecap:round;stroke-linejoin:round;stroke-miterlimit:4;stroke-dasharray:none;stroke-dashoffset:0;stroke-opacity:0.5019607843"
       d="M 8 3 A 5.000021934509278 5.000021934509278 0 0 0 3 8 A 5.000021934509278 5.000021934509278 0 0 0 3.02734375 8.515625 A 5.000021934509279 5.000021934509279 0 0 1 8 4 A 5.000021934509279 5.000021934509279 0 0 1 12.97265625 8.484375 A 5.000021934509278 5.000021934509278 0 0 0 13 8 A 5.000021934509278 5.000021934509278 0 0 0 8 3 z M 10.95703125 8.486328125 A 3.000022172927856 3.000022172927856 0 0 1 8 11 A 3.000022172927856 3.000022172927856 0 0 1 5.04296875 8.513671875 A 3.000022172927856 3.000022172927856 0 0 0 5 9 A 3.000022172927856 3.000022172927856 0 0 0 8 12 A 3.000022172927856 3.000022172927856 0 0 0 11 9 A 3.000022172927856 3.000022172927856 0 0 0 10.95703125 8.486328125 z "
       transform="translate(0,1036.362160509965)"
       id="path4178" />
  </g>
</svg>
